<?xml version="1.0" encoding="UTF-8" standalone="no"?>
<svg
   xmlns:dc="http://purl.org/dc/elements/1.1/"
   xmlns:cc="http://creativecommons.org/ns#"
   xmlns:rdf="http://www.w3.org/1999/02/22-rdf-syntax-ns#"
   xmlns:svg="http://www.w3.org/2000/svg"
   xmlns="http://www.w3.org/2000/svg"
   version="1.1"
   id="svg4136"
   height="1052.36220472"
   width="744.094488189">
  <metadata
     id="metadata4235">
    <rdf:RDF>
      <cc:Work
         rdf:about="">
        <dc:format>image/svg+xml</dc:format>
        <dc:type
           rdf:resource="http://purl.org/dc/dcmitype/StillImage" />
        <dc:title></dc:title>
      </cc:Work>
    </rdf:RDF>
  </metadata>
  <desc
     id="desc4138">C:\Users\You\Desktop\3D designs\LiDARLite_Symbiont_Mount.DXF - scale = 1.000000, origin = (0.000000, 0.000000), auto = False</desc>
  <defs
     id="defs4140">
    <marker
       orient="auto"
       id="DistanceX"
       style="overflow:visible"
       refX="0.0"
       refY="0.0">
      <path
         id="path4143"
         d="M 3,-3 L -3,3 M 0,-5 L  0,5"
         style="stroke:#000000; stroke-width:0.5" />
    </marker>
    <pattern
       id="Hatch"
       x="0"
       y="0"
       patternUnits="userSpaceOnUse"
       width="8"
       height="8">
      <path
         id="path4146"
         d="M8 4 l-4,4"
         stroke-width="0.25"
         stroke="#000000"
         linecap="square" />
      <path
         id="path4148"
         d="M6 2 l-4,4"
         stroke-width="0.25"
         stroke="#000000"
         linecap="square" />
      <path
         id="path4150"
         d="M4 0 l-4,4"
         stroke-width="0.25"
         stroke="#000000"
         linecap="square" />
    </pattern>
    <symbol
       id="*Model_Space" />
    <symbol
       id="*Paper_Space" />
    <symbol
       id="*Paper_Space0" />
    <marker
       refY="0.0"
       refX="0.0"
       style="overflow:visible"
       id="DistanceX-7"
       orient="auto">
      <path
         style="stroke:#000000; stroke-width:0.5"
         d="M 3,-3 L -3,3 M 0,-5 L  0,5"
         id="path4244" />
    </marker>
    <pattern
       height="8"
       width="8"
       patternUnits="userSpaceOnUse"
       y="0"
       x="0"
       id="Hatch-7">
      <path
         linecap="square"
         stroke="#000000"
         stroke-width="0.25"
         d="M8 4 l-4,4"
         id="path4247" />
      <path
         linecap="square"
         stroke="#000000"
         stroke-width="0.25"
         d="M6 2 l-4,4"
         id="path4249" />
      <path
         linecap="square"
         stroke="#000000"
         stroke-width="0.25"
         d="M4 0 l-4,4"
         id="path4251" />
    </pattern>
    <symbol
       id="*Model_Space-8" />
    <symbol
       id="*Paper_Space-9" />
    <symbol
       id="*Paper_Space0-9" />
  </defs>
  <g
     id="g4155">
    <g
       transform="translate(118.71824,-133.68103)"
       id="g4256">
      <path
         style="fill:none;stroke:#000000;stroke-width:0.89999998;stroke-linecap:round"
         d="m 35.167323,1016.9483 46.395177,0"
         id="path4258" />
      <path
         style="fill:none;stroke:#000000;stroke-width:0.89999998;stroke-linecap:round"
         d="m 35.167323,985.76724 a 15.590551,15.590551 0 0 0 0,31.18106"
         id="path4260" />
      <path
         style="fill:none;stroke:#000000;stroke-width:0.89999998;stroke-linecap:round"
         d="m 81.5625,985.76724 -46.395177,0"
         id="path4262" />
      <path
         style="fill:none;stroke:#000000;stroke-width:0.89999998;stroke-linecap:round"
         d="m 81.5625,1016.9483 a 15.590551,15.590551 0 0 0 0,-31.18106"
         id="path4264" />
      <path
         style="fill:none;stroke:#000000;stroke-width:0.89999998;stroke-linecap:round"
         d="m 212.33268,985.76724 -46.39518,0"
         id="path4266" />
      <path
         style="fill:none;stroke:#000000;stroke-width:0.89999998;stroke-linecap:round"
         d="m 212.33268,1016.9483 a 15.590551,15.590551 0 0 0 0,-31.18106"
         id="path4268" />
      <path
         style="fill:none;stroke:#000000;stroke-width:0.89999998;stroke-linecap:round"
         d="m 165.9375,1016.9483 46.39518,0"
         id="path4270" />
      <path
         style="fill:none;stroke:#000000;stroke-width:0.89999998;stroke-linecap:round"
         d="m 165.9375,985.76724 a 15.590551,15.590551 0 0 0 0,31.18106"
         id="path4272" />
      <path
         style="fill:none;stroke:#000000;stroke-width:0.89999998;stroke-linecap:round"
         d="m 212.33268,862.77607 -46.39518,0"
         id="path4274" />
      <path
         style="fill:none;stroke:#000000;stroke-width:0.89999998;stroke-linecap:round"
         d="m 212.33268,893.95717 a 15.590551,15.590551 0 0 0 0,-31.1811"
         id="path4276" />
      <path
         style="fill:none;stroke:#000000;stroke-width:0.89999998;stroke-linecap:round"
         d="m 165.9375,893.95717 46.39518,0"
         id="path4278" />
      <path
         style="fill:none;stroke:#000000;stroke-width:0.89999998;stroke-linecap:round"
         d="m 165.9375,862.77607 a 15.590551,15.590551 0 0 0 0,31.1811"
         id="path4280" />
      <path
         style="fill:none;stroke:#000000;stroke-width:0.89999998;stroke-linecap:round"
         d="m 35.167323,893.95717 46.395177,0"
         id="path4282" />
      <path
         style="fill:none;stroke:#000000;stroke-width:0.89999998;stroke-linecap:round"
         d="m 35.167323,862.77607 a 15.590551,15.590551 0 0 0 0,31.1811"
         id="path4284" />
      <path
         style="fill:none;stroke:#000000;stroke-width:0.89999998;stroke-linecap:round"
         d="m 81.5625,862.77607 -46.395177,0"
         id="path4286" />
      <path
         style="fill:none;stroke:#000000;stroke-width:0.89999998;stroke-linecap:round"
         d="m 81.5625,893.95717 a 15.590551,15.590551 0 0 0 0,-31.1811"
         id="path4288" />
      <path
         style="fill:none;stroke:#000000;stroke-width:0.89999998;stroke-linecap:round"
         d="m -8.235,714.86221 a 7.965,7.965 0 1 0 -15.93,0 7.965,7.965 0 1 0 15.93,0 z"
         id="path4290" />
      <path
         style="fill:none;stroke:#000000;stroke-width:0.89999998;stroke-linecap:round"
         d="m 271.665,714.86221 a 7.965,7.965 0 1 0 -15.93,0 7.965,7.965 0 1 0 15.93,0 z"
         id="path4292" />
      <path
         style="fill:none;stroke:#000000;stroke-width:0.89999998;stroke-linecap:round"
         d="m 274.78346,602.36221 -302.066925,0"
         id="path4294" />
      <path
         style="fill:none;stroke:#000000;stroke-width:0.89999998;stroke-linecap:round"
         d="M -27.283465,602.36221 A 17.716535,17.716535 0 0 0 -45,620.07874"
         id="path4296" />
      <path
         style="fill:none;stroke:#000000;stroke-width:0.89999998;stroke-linecap:round"
         d="m -45,620.07874 0,189.56693"
         id="path4298" />
      <path
         style="fill:none;stroke:#000000;stroke-width:0.89999998;stroke-linecap:round"
         d="m -45,809.64567 a 17.716535,17.716535 0 0 0 17.716535,17.71654"
         id="path4300" />
      <path
         style="fill:none;stroke:#000000;stroke-width:0.89999998;stroke-linecap:round"
         d="m -27.283465,827.36221 9.56693,0"
         id="path4302" />
      <path
         style="fill:none;stroke:#000000;stroke-width:0.89999998;stroke-linecap:round"
         d="M 0,845.07874 A 17.716535,17.716535 0 0 0 -17.716535,827.36221"
         id="path4304" />
      <path
         style="fill:none;stroke:#000000;stroke-width:0.89999998;stroke-linecap:round"
         d="M 0,845.07874 0,1034.6457"
         id="path4306" />
      <path
         style="fill:none;stroke:#000000;stroke-width:0.89999998;stroke-linecap:round"
         d="m 0,1034.6457 a 17.716535,17.716535 0 0 0 17.716535,17.7165"
         id="path4308" />
      <path
         style="fill:none;stroke:#000000;stroke-width:0.89999998;stroke-linecap:round"
         d="m 17.716535,1052.3622 212.066925,0"
         id="path4310" />
      <path
         style="fill:none;stroke:#000000;stroke-width:0.89999998;stroke-linecap:round"
         d="M 229.78346,1052.3622 A 17.716535,17.716535 0 0 0 247.5,1034.6457"
         id="path4312" />
      <path
         style="fill:none;stroke:#000000;stroke-width:0.89999998;stroke-linecap:round"
         d="m 247.5,1034.6457 0,-189.56696"
         id="path4314" />
      <path
         style="fill:none;stroke:#000000;stroke-width:0.89999998;stroke-linecap:round"
         d="M 265.21654,827.36221 A 17.716535,17.716535 0 0 0 247.5,845.07874"
         id="path4316" />
      <path
         style="fill:none;stroke:#000000;stroke-width:0.89999998;stroke-linecap:round"
         d="m 265.21654,827.36221 9.56692,0"
         id="path4318" />
      <path
         style="fill:none;stroke:#000000;stroke-width:0.89999998;stroke-linecap:round"
         d="M 274.78346,827.36221 A 17.716535,17.716535 0 0 0 292.5,809.64567"
         id="path4320" />
      <path
         style="fill:none;stroke:#000000;stroke-width:0.89999998;stroke-linecap:round"
         d="m 292.5,809.64567 0,-189.56693"
         id="path4322" />
      <path
         style="fill:none;stroke:#000000;stroke-width:0.89999998;stroke-linecap:round"
         d="M 292.5,620.07874 A 17.716535,17.716535 0 0 0 274.78346,602.36221"
         id="path4324" />
    </g>
  </g>
</svg>
